<?xml version="1.0" encoding="utf-8"?>
<!-- Generator: Adobe Illustrator 26.0.3, SVG Export Plug-In . SVG Version: 6.00 Build 0)  -->
<svg version="1.1" id="Слой_1" xmlns="http://www.w3.org/2000/svg" xmlns:xlink="http://www.w3.org/1999/xlink" x="0px" y="0px"
	 viewBox="0 0 170 170" style="enable-background:new 0 0 170 170;" xml:space="preserve">
<style type="text/css">
	.st0{fill:none;stroke:#789A4C;stroke-width:3.9223;}
	.st1{fill:none;stroke:#789A4C;stroke-width:1.5689;}
	.st2{fill:#789A4C;}
</style>
<path class="st0" d="M170.11,85c0,47.01-38.11,85.11-85.11,85.11c-47.01,0-85.11-38.11-85.11-85.11C-0.11,37.99,37.99-0.11,85-0.11
	C132.01-0.11,170.11,37.99,170.11,85z"/>
<path class="st0" d="M147.82,85c0,34.7-28.13,62.82-62.82,62.82c-34.7,0-62.82-28.13-62.82-62.82c0-34.7,28.13-62.82,62.82-62.82
	C119.7,22.18,147.82,50.3,147.82,85z"/>
<path class="st0" d="M67.63,125.53c6.92,0,13.13-3.03,17.37-7.84c4.24,4.81,10.45,7.84,17.37,7.84c12.79,0,23.16-10.37,23.16-23.16
	c0-6.92-3.03-13.13-7.84-17.37c4.81-4.24,7.84-10.45,7.84-17.37c0-12.79-10.37-23.16-23.16-23.16c-6.92,0-13.13,3.03-17.37,7.84
	c-4.24-4.81-10.45-7.84-17.37-7.84c-12.79,0-23.16,10.37-23.16,23.16c0,6.92,3.03,13.13,7.84,17.37
	c-4.81,4.24-7.84,10.45-7.84,17.37C44.47,115.16,54.84,125.53,67.63,125.53z"/>
<path class="st0" d="M63.11,76.12l-9.07,8.9l9.07,8.9v12.58h12.83l9.07,8.9l9.07-8.9h12.83V93.92l9.07-8.9l-9.07-8.9V63.54H94.07
	L85,54.64l-9.07,8.9H63.11V76.12z"/>
<path class="st0" d="M71.37,79.54l6.04,5.48l-6.04,5.48v7.74h7.99L85,92.03l5.65,6.21h7.99v-7.74l-6.04-5.48l6.04-5.48V71.8h-7.99
	L85,78.01l-5.65-6.21h-7.99V79.54z"/>
<path class="st1" d="M153.15,83.18l-2.38,2.34l2.38,2.34v3.31h3.36l2.38,2.34l2.38-2.34h3.36v-3.31l2.38-2.34l-2.38-2.34v-3.31
	h-3.36l-2.38-2.34l-2.38,2.34h-3.36V83.18z"/>
<path class="st2" d="M155.32,84.08l1.58,1.44l-1.58,1.44V89h2.09l1.48-1.63l1.48,1.63h2.09v-2.04l-1.58-1.44l1.58-1.44v-2.04h-2.09
	l-1.48,1.63l-1.48-1.63h-2.09V84.08z"/>
<rect x="100.44" y="82.21" transform="matrix(0.7071 -0.7071 0.7071 0.7071 -29.9682 98.1422)" class="st2" width="6.08" height="6.08"/>
<rect x="63.97" y="82.21" transform="matrix(0.7071 -0.7071 0.7071 0.7071 -40.6522 72.3488)" class="st2" width="6.08" height="6.08"/>
<rect x="82.21" y="63.97" transform="matrix(0.7071 -0.7071 0.7071 0.7071 -22.4133 79.9038)" class="st2" width="6.08" height="6.08"/>
<rect x="82.21" y="100.44" transform="matrix(0.7071 -0.7071 0.7071 0.7071 -48.2063 90.5876)" class="st2" width="6.08" height="6.08"/>
<path class="st2" d="M56.59,149l-2.22-1.12l-2.98,5.88l-2.12-1.08l2.98-5.88l-2.23-1.13l0.94-1.85l6.57,3.33L56.59,149z"/>
<path class="st2" d="M60.07,148.18l2.5,0.9l-0.35,9.08l-2.27-0.82l0.08-1.77l-2.17-0.78l-1.06,1.42l-2.28-0.83L60.07,148.18z
	 M60.21,153.95l0.31-3.13l-1.79,2.59L60.21,153.95z"/>
<path class="st2" d="M65.35,156.68c0.04,0.04,0.18,0.14,0.4,0.31c0.23,0.16,0.51,0.28,0.86,0.36c0.25,0.06,0.45,0.06,0.62,0.02
	c0.17-0.05,0.31-0.16,0.42-0.32c0.12-0.16,0.22-0.37,0.31-0.64c0.1-0.28,0.19-0.62,0.29-1.02l0.99-4.29l2.32,0.53l-0.99,4.29
	c-0.15,0.64-0.32,1.21-0.52,1.72c-0.19,0.51-0.45,0.92-0.76,1.25c-0.32,0.33-0.73,0.54-1.24,0.64c-0.51,0.09-1.14,0.05-1.91-0.13
	c-0.36-0.08-0.69-0.2-0.97-0.36c-0.28-0.16-0.53-0.35-0.74-0.58L65.35,156.68z"/>
<path class="st2" d="M73.42,156.48c0.06-0.52,0.21-1.03,0.45-1.51c0.26-0.49,0.6-0.92,1.02-1.29c0.42-0.37,0.92-0.65,1.49-0.84
	c0.58-0.19,1.21-0.25,1.9-0.18c0.82,0.09,1.53,0.34,2.1,0.75c0.58,0.4,0.99,0.9,1.23,1.5l-1.94,1.1c-0.08-0.29-0.21-0.53-0.39-0.7
	c-0.18-0.17-0.38-0.3-0.61-0.38c-0.22-0.09-0.44-0.14-0.66-0.17c-0.34-0.04-0.64,0-0.91,0.11c-0.26,0.1-0.48,0.26-0.66,0.46
	c-0.18,0.2-0.32,0.43-0.43,0.69c-0.1,0.26-0.17,0.52-0.19,0.79c-0.03,0.3-0.02,0.59,0.04,0.88c0.06,0.28,0.16,0.54,0.31,0.78
	c0.15,0.23,0.34,0.41,0.57,0.56c0.24,0.15,0.51,0.24,0.82,0.27c0.22,0.02,0.44,0.01,0.68-0.03c0.23-0.05,0.45-0.14,0.65-0.27
	c0.2-0.13,0.37-0.33,0.49-0.57l1.81,1.35c-0.21,0.4-0.53,0.73-0.96,0.99c-0.43,0.26-0.9,0.44-1.42,0.55
	c-0.52,0.1-1.02,0.12-1.52,0.07c-0.64-0.07-1.21-0.25-1.72-0.56c-0.5-0.31-0.92-0.7-1.26-1.16c-0.34-0.47-0.58-0.98-0.74-1.52
	C73.42,157.58,73.37,157.03,73.42,156.48z"/>
<path class="st2" d="M88.02,161.85c-0.66,0.02-1.26-0.08-1.8-0.31c-0.54-0.24-1.02-0.55-1.42-0.96c-0.4-0.41-0.71-0.87-0.93-1.39
	c-0.22-0.52-0.34-1.06-0.36-1.62c-0.02-0.58,0.07-1.13,0.28-1.66c0.2-0.53,0.49-1,0.87-1.42c0.39-0.43,0.84-0.77,1.37-1.02
	c0.54-0.25,1.13-0.39,1.77-0.41c0.66-0.02,1.26,0.09,1.8,0.32c0.54,0.23,1.01,0.55,1.41,0.96c0.4,0.41,0.7,0.88,0.92,1.4
	c0.23,0.51,0.35,1.05,0.37,1.6c0.02,0.57-0.08,1.12-0.28,1.64c-0.2,0.53-0.49,1-0.87,1.43c-0.38,0.42-0.83,0.76-1.36,1.02
	C89.26,161.69,88.67,161.83,88.02,161.85z M85.92,157.52c0.01,0.29,0.06,0.57,0.15,0.85c0.09,0.27,0.22,0.51,0.39,0.72
	c0.17,0.21,0.38,0.37,0.63,0.49c0.26,0.11,0.55,0.17,0.9,0.16c0.34-0.01,0.64-0.08,0.88-0.22s0.45-0.32,0.59-0.54
	c0.16-0.23,0.27-0.48,0.33-0.76c0.07-0.28,0.1-0.56,0.1-0.85c-0.01-0.29-0.06-0.57-0.15-0.84c-0.09-0.27-0.22-0.5-0.39-0.71
	c-0.17-0.21-0.38-0.38-0.64-0.49c-0.26-0.11-0.55-0.17-0.88-0.15c-0.34,0.01-0.64,0.08-0.88,0.22c-0.24,0.14-0.44,0.32-0.59,0.54
	c-0.16,0.22-0.27,0.46-0.34,0.74C85.94,156.96,85.91,157.23,85.92,157.52z"/>
<path class="st2" d="M100.26,153.89l-2.46,0.37l0.99,6.51l-2.35,0.36l-0.99-6.51L92.97,155l-0.31-2.05l7.28-1.11L100.26,153.89z"/>
<path class="st2" d="M108.02,151.9l-2.4,0.64l1.69,6.36l-2.3,0.61l-1.69-6.36l-2.42,0.64l-0.53-2l7.12-1.9L108.02,151.9z"/>
<path class="st2" d="M116.19,153.66l0.74,1.94l-5.76,2.21l-3.1-8.08l5.66-2.17l0.74,1.94l-3.44,1.32l0.44,1.14l2.94-1.13l0.69,1.8
	l-2.94,1.13l0.49,1.28L116.19,153.66z"/>
<path class="st2" d="M116.6,146.26l2.67,1.68l0.11-3.15l2.26-1.2l-0.34,5.15l4.32,2.54l-2.26,1.2l-2.53-1.61l-0.08,3l-2.27,1.21
	l0.32-5l-4.46-2.6L116.6,146.26z"/>
<path class="st2" d="M35.81,22.76l2.12-1.6l7.42,5.25l-1.93,1.46l-1.44-1.04l-1.84,1.39l0.61,1.66l-1.94,1.46L35.81,22.76z
	 M40.73,25.78l-2.45-1.97l1.2,2.92L40.73,25.78z"/>
<path class="st2" d="M49.07,17.35c0,0-0.08,0-0.24-0.01c-0.16,0-0.36,0.01-0.61,0.03c-0.25,0.02-0.51,0.06-0.79,0.12
	c-0.27,0.06-0.52,0.15-0.75,0.28c-0.18,0.1-0.31,0.21-0.39,0.33c-0.08,0.12-0.09,0.25-0.01,0.38c0.07,0.13,0.19,0.2,0.34,0.21
	s0.36,0,0.6-0.05c0.25-0.05,0.54-0.12,0.89-0.19c0.55-0.12,1.04-0.18,1.49-0.19c0.44,0,0.84,0.09,1.19,0.28
	c0.34,0.18,0.65,0.51,0.91,0.99c0.25,0.45,0.38,0.88,0.4,1.29c0.01,0.4-0.08,0.76-0.25,1.1c-0.17,0.34-0.41,0.65-0.7,0.92
	c-0.3,0.27-0.62,0.5-0.98,0.7c-0.36,0.2-0.76,0.38-1.2,0.53c-0.43,0.14-0.87,0.25-1.31,0.33c-0.44,0.07-0.87,0.1-1.27,0.09
	l-0.12-2.32c0,0,0.09,0,0.28,0.01c0.19,0.01,0.43,0,0.72-0.03c0.29-0.02,0.61-0.07,0.94-0.15c0.34-0.08,0.65-0.2,0.95-0.36
	c0.23-0.13,0.37-0.24,0.42-0.35c0.06-0.12,0.06-0.22,0-0.32c-0.08-0.15-0.22-0.22-0.42-0.21c-0.2,0-0.45,0.04-0.75,0.11
	c-0.29,0.06-0.62,0.13-0.98,0.2c-0.52,0.1-0.98,0.13-1.37,0.1c-0.39-0.03-0.73-0.14-1-0.32c-0.28-0.19-0.52-0.47-0.73-0.84
	c-0.31-0.56-0.44-1.1-0.39-1.63c0.05-0.52,0.24-1,0.56-1.43c0.32-0.44,0.73-0.8,1.23-1.08c0.37-0.21,0.75-0.36,1.14-0.45
	c0.4-0.11,0.78-0.18,1.15-0.22c0.38-0.04,0.71-0.07,1-0.08L49.07,17.35z"/>
<path class="st2" d="M58.42,13.08c0,0-0.08-0.01-0.24-0.04c-0.16-0.03-0.36-0.04-0.61-0.05c-0.25-0.02-0.52-0.01-0.8,0.01
	c-0.28,0.02-0.54,0.08-0.78,0.17c-0.19,0.07-0.33,0.16-0.43,0.27c-0.1,0.11-0.12,0.23-0.06,0.38c0.05,0.14,0.16,0.22,0.31,0.26
	c0.15,0.04,0.35,0.05,0.6,0.03c0.25-0.02,0.56-0.04,0.9-0.06c0.56-0.04,1.06-0.04,1.5,0.02c0.44,0.06,0.82,0.2,1.14,0.44
	c0.31,0.23,0.57,0.59,0.77,1.1c0.19,0.49,0.26,0.93,0.22,1.33c-0.05,0.39-0.18,0.75-0.4,1.06s-0.49,0.58-0.82,0.82
	c-0.33,0.22-0.69,0.41-1.07,0.56c-0.39,0.15-0.81,0.27-1.26,0.36c-0.45,0.08-0.9,0.13-1.34,0.14c-0.45,0.01-0.87-0.02-1.27-0.08
	l0.2-2.32c0,0,0.09,0.02,0.28,0.05c0.19,0.03,0.43,0.06,0.72,0.07c0.29,0.02,0.61,0.01,0.95-0.02c0.35-0.03,0.67-0.1,0.99-0.23
	c0.24-0.09,0.4-0.19,0.47-0.29c0.07-0.11,0.09-0.21,0.05-0.32c-0.06-0.16-0.19-0.25-0.39-0.27c-0.2-0.03-0.45-0.02-0.76,0.01
	c-0.3,0.02-0.63,0.04-1,0.06c-0.53,0.02-0.99,0-1.37-0.08c-0.38-0.09-0.7-0.24-0.95-0.46c-0.25-0.22-0.46-0.53-0.61-0.93
	c-0.23-0.6-0.29-1.15-0.16-1.66c0.12-0.51,0.37-0.96,0.75-1.34c0.38-0.39,0.84-0.69,1.37-0.9c0.39-0.15,0.79-0.25,1.19-0.29
	c0.41-0.05,0.8-0.07,1.17-0.06c0.38,0.01,0.71,0.03,1,0.06L58.42,13.08z"/>
<path class="st2" d="M68.17,16.2c-0.64,0.14-1.25,0.15-1.83,0.03c-0.58-0.13-1.1-0.35-1.57-0.67c-0.46-0.33-0.86-0.73-1.18-1.19
	c-0.31-0.47-0.53-0.98-0.65-1.53c-0.13-0.56-0.14-1.12-0.04-1.68c0.1-0.56,0.3-1.07,0.59-1.56c0.3-0.49,0.68-0.91,1.16-1.26
	c0.48-0.35,1.03-0.59,1.66-0.73c0.64-0.14,1.25-0.15,1.83-0.02c0.58,0.12,1.1,0.35,1.56,0.68c0.46,0.33,0.85,0.73,1.17,1.2
	c0.32,0.46,0.54,0.96,0.66,1.5c0.12,0.56,0.13,1.11,0.03,1.67c-0.09,0.55-0.29,1.08-0.59,1.57c-0.29,0.48-0.67,0.9-1.15,1.25
	C69.36,15.82,68.81,16.06,68.17,16.2z M65.3,12.34c0.06,0.29,0.17,0.55,0.3,0.81c0.14,0.24,0.31,0.46,0.52,0.63
	c0.2,0.17,0.44,0.29,0.71,0.37c0.27,0.06,0.58,0.06,0.91-0.01s0.61-0.2,0.83-0.38c0.22-0.18,0.38-0.4,0.48-0.64
	c0.11-0.26,0.17-0.53,0.18-0.8c0.02-0.29,0-0.57-0.06-0.85c-0.06-0.29-0.16-0.55-0.3-0.79c-0.14-0.24-0.31-0.45-0.51-0.62
	c-0.21-0.18-0.45-0.3-0.72-0.36c-0.27-0.06-0.57-0.06-0.9,0.01c-0.33,0.07-0.61,0.2-0.83,0.38c-0.21,0.18-0.37,0.39-0.48,0.64
	c-0.11,0.24-0.18,0.51-0.2,0.79C65.22,11.79,65.24,12.07,65.3,12.34z"/>
<path class="st2" d="M75.18,10.18c-0.03-0.53,0.03-1.05,0.19-1.56c0.17-0.52,0.43-1.01,0.79-1.44c0.35-0.44,0.8-0.8,1.32-1.08
	c0.54-0.29,1.15-0.45,1.84-0.5c0.83-0.05,1.56,0.07,2.2,0.38c0.64,0.3,1.13,0.72,1.46,1.27l-1.73,1.41
	c-0.12-0.28-0.29-0.49-0.51-0.63c-0.2-0.14-0.43-0.23-0.67-0.27c-0.23-0.05-0.46-0.07-0.68-0.05c-0.34,0.02-0.63,0.11-0.87,0.27
	c-0.23,0.15-0.43,0.33-0.57,0.56c-0.14,0.23-0.24,0.48-0.31,0.75c-0.06,0.27-0.07,0.54-0.06,0.81c0.02,0.3,0.08,0.59,0.19,0.86
	c0.11,0.27,0.25,0.51,0.44,0.72c0.18,0.2,0.4,0.35,0.65,0.46c0.26,0.11,0.54,0.15,0.85,0.13c0.22-0.01,0.44-0.06,0.66-0.14
	c0.22-0.09,0.42-0.22,0.6-0.38c0.18-0.17,0.3-0.38,0.39-0.65l2.01,1.03c-0.14,0.43-0.4,0.81-0.78,1.14
	c-0.38,0.33-0.81,0.59-1.31,0.78c-0.49,0.19-0.99,0.3-1.48,0.33c-0.64,0.04-1.24-0.05-1.79-0.26c-0.54-0.23-1.03-0.54-1.44-0.93
	c-0.41-0.4-0.74-0.86-0.98-1.38C75.36,11.27,75.22,10.74,75.18,10.18z"/>
<path class="st2" d="M85.86,14.07l0.4-8.65l2.38,0.11l-0.4,8.65L85.86,14.07z"/>
<path class="st2" d="M94.54,5.98l2.63,0.41l1.4,8.98L96.18,15l-0.26-1.76l-2.28-0.35l-0.77,1.6l-2.4-0.37L94.54,5.98z M95.79,11.61
	L95.5,8.48l-1.26,2.89L95.79,11.61z"/>
<path class="st2" d="M109.43,11.48l-2.38-0.72l-1.91,6.3l-2.28-0.69l1.91-6.3l-2.39-0.73l0.6-1.98l7.05,2.14L109.43,11.48z"/>
<path class="st2" d="M110.04,18.69l3.4-7.96l2.19,0.93l-3.4,7.96L110.04,18.69z"/>
<path class="st2" d="M118.8,22.9c-0.57-0.33-1.02-0.74-1.36-1.22c-0.34-0.49-0.57-1.01-0.69-1.57c-0.12-0.56-0.13-1.11-0.05-1.67
	c0.09-0.56,0.28-1.08,0.56-1.56c0.29-0.5,0.66-0.92,1.12-1.25c0.45-0.34,0.95-0.58,1.49-0.74c0.55-0.16,1.12-0.2,1.7-0.13
	c0.59,0.07,1.16,0.27,1.71,0.59c0.57,0.33,1.02,0.74,1.36,1.23c0.34,0.48,0.57,1,0.68,1.56c0.12,0.56,0.13,1.12,0.04,1.68
	c-0.08,0.56-0.26,1.07-0.54,1.55c-0.29,0.49-0.66,0.91-1.11,1.24c-0.44,0.34-0.94,0.59-1.5,0.75c-0.54,0.15-1.11,0.2-1.69,0.14
	C119.93,23.43,119.36,23.23,118.8,22.9z M119.33,18.12c-0.15,0.25-0.26,0.52-0.33,0.8c-0.07,0.27-0.08,0.54-0.05,0.82
	c0.03,0.26,0.12,0.51,0.27,0.75c0.15,0.23,0.38,0.44,0.67,0.61c0.29,0.17,0.58,0.27,0.87,0.28c0.28,0.02,0.55-0.03,0.79-0.14
	c0.26-0.11,0.48-0.27,0.68-0.46c0.21-0.2,0.39-0.42,0.53-0.66c0.15-0.25,0.25-0.52,0.32-0.79c0.07-0.27,0.08-0.54,0.05-0.81
	c-0.03-0.27-0.12-0.52-0.28-0.76c-0.16-0.23-0.38-0.43-0.67-0.6c-0.29-0.17-0.58-0.27-0.87-0.28c-0.28-0.01-0.54,0.04-0.79,0.14
	c-0.25,0.1-0.47,0.25-0.68,0.45C119.64,17.65,119.47,17.87,119.33,18.12z"/>
<path class="st2" d="M129.94,24.99l-2.72,3.27l-1.83-1.52l5.54-6.65l1.43,1.19l-0.15,5.61l2.82-3.38l1.83,1.52l-5.54,6.65
	l-1.45-1.21L129.94,24.99z"/>
<path class="st1" d="M7.98,91.71c1.21,0,2.3-0.53,3.04-1.37c0.74,0.84,1.83,1.37,3.04,1.37c2.24,0,4.05-1.81,4.05-4.05
	c0-1.21-0.53-2.3-1.37-3.04c0.84-0.74,1.37-1.83,1.37-3.04c0-2.24-1.81-4.05-4.05-4.05c-1.21,0-2.3,0.53-3.04,1.37
	c-0.74-0.84-1.83-1.37-3.04-1.37c-2.24,0-4.05,1.81-4.05,4.05c0,1.21,0.53,2.3,1.37,3.04c-0.84,0.74-1.37,1.83-1.37,3.04
	C3.92,89.9,5.74,91.71,7.98,91.71z"/>
<path class="st2" d="M11.01,84.62c0.72-0.56,1.18-1.41,1.18-2.36s-0.46-1.81-1.18-2.36c-0.72,0.56-1.18,1.41-1.18,2.36
	S10.29,84.06,11.01,84.62z"/>
<path class="st2" d="M11.01,89.35c0.72-0.56,1.18-1.41,1.18-2.36c0-0.96-0.46-1.81-1.18-2.36c-0.72,0.56-1.18,1.41-1.18,2.36
	C9.83,87.94,10.29,88.79,11.01,89.35z"/>
<path class="st2" d="M11.02,84.62c0.56,0.72,1.41,1.18,2.36,1.18s1.81-0.46,2.36-1.18c-0.56-0.72-1.41-1.18-2.36-1.18
	S11.57,83.9,11.02,84.62z"/>
<path class="st2" d="M6.29,84.62c0.56,0.72,1.41,1.18,2.36,1.18s1.81-0.46,2.36-1.18c-0.56-0.72-1.41-1.18-2.36-1.18
	S6.84,83.9,6.29,84.62z"/>
</svg>
